<svg id="sushi--line" aria-hidden="false" role="img" aria-label="sushi, nigiri, sashime, maki" width="24px" height="24px" viewBox="0 0 24 24" fill="none" xmlns="http://www.w3.org/2000/svg"><path d="M8.925 11.0442C4.76647 12.2911 1.75 16.1807 1.75 12.3631C1.75 8.54547 5.34147 5.62431 9.5 4.75M15.075 11.0442C19.2335 12.2911 22.25 16.1807 22.25 12.3631C22.25 8.54547 18.6585 5.62431 14.5 4.75" stroke="currentColor" stroke-width="1.5" stroke-linecap="round" stroke-linejoin="round"></path><path d="M9.25 19.25V6.42241C9.25 5.04566 10.1903 3.80724 11.5661 3.75777C11.7099 3.7526 11.8546 3.75 12 3.75C12.1454 3.75 12.2901 3.7526 12.4339 3.75777C13.8097 3.80724 14.75 5.04566 14.75 6.42241V19.25" stroke="currentColor" stroke-width="1.5" stroke-linecap="round" stroke-linejoin="round"></path><path d="M3.75 14V17.25C3.75 18.3546 4.64543 19.25 5.75 19.25C9.91667 19.25 14.0833 19.25 18.25 19.25C19.3546 19.25 20.25 18.3546 20.25 17.25V14" stroke="currentColor" stroke-width="1.5" stroke-linecap="round" stroke-linejoin="round"></path></svg>
